PathFileType	4	(X/Y/Z)	C:\Users\Basilio\Documents\Thesis Gigler\squatting_fais\c3dfiles\076\SLS_front_pre1\markers_experimental.trc
DataRate	CameraRate	NumFrames	NumMarkers	Units	OrigDataRate	OrigDataStartFrame	OrigNumFrames
200.000000	200.000000	4	61	mm	200.000000	387	1548
Frame#	Time	FHD			LBHD			RBHD			C7			T10			CLAV			LSHO			LUUPA			LMUPA			LDUPA			LLEP			LMEP			LRAD			LUL			LRFIN			RSHO			RUPA1			RMUPA			RDUPA			RLEP			RMEP			RRAD			RUL			RUFIN			LASI			RASI			USACR			LSACR			RSACR			LTHI1			LTHI2			LTHI3			LTHI4			LLFC			LMFC			LTIB1			LTIB2			LTIB3			LTIB4			LLMAL			LMMAL			LHEE			LMT1			LMT2			LMT5			RTHI			RTHI2			RTHI3			RTHI4			RLFC			RMFC			RTIB1			RTIB2			RTIB3			RTIB4			RLMAL			RMMAL			RHEE			RMT1			RMT2			RMT5			
		X1	Y1	Z1	X2	Y2	Z2	X3	Y3	Z3	X4	Y4	Z4	X5	Y5	Z5	X6	Y6	Z6	X7	Y7	Z7	X8	Y8	Z8	X9	Y9	Z9	X10	Y10	Z10	X11	Y11	Z11	X12	Y12	Z12	X13	Y13	Z13	X14	Y14	Z14	X15	Y15	Z15	X16	Y16	Z16	X17	Y17	Z17	X18	Y18	Z18	X19	Y19	Z19	X20	Y20	Z20	X21	Y21	Z21	X22	Y22	Z22	X23	Y23	Z23	X24	Y24	Z24	X25	Y25	Z25	X26	Y26	Z26	X27	Y27	Z27	X28	Y28	Z28	X29	Y29	Z29	X30	Y30	Z30	X31	Y31	Z31	X32	Y32	Z32	X33	Y33	Z33	X34	Y34	Z34	X35	Y35	Z35	X36	Y36	Z36	X37	Y37	Z37	X38	Y38	Z38	X39	Y39	Z39	X40	Y40	Z40	X41	Y41	Z41	X42	Y42	Z42	X43	Y43	Z43	X44	Y44	Z44	X45	Y45	Z45	X46	Y46	Z46	X47	Y47	Z47	X48	Y48	Z48	X49	Y49	Z49	X50	Y50	Z50	X51	Y51	Z51	X52	Y52	Z52	X53	Y53	Z53	X54	Y54	Z54	X55	Y55	Z55	X56	Y56	Z56	X57	Y57	Z57	X58	Y58	Z58	X59	Y59	Z59	X60	Y60	Z60	X61	Y61	Z61	

388	1.935	-245.9751739501954	1581.396484375	-1028.93798828125	-388.3495483398439	1514.23486328125	-1123.490234375	-371.8945922851563	1516.924072265625	-972.6428222656252	-434.7268371582032	1395.894775390625	-1041.477905273438	-498.0084228515626	1087.3291015625	-1044.693115234375	-306.3393859863282	1317.439575195313	-1053.577026367188	-369.8776245117188	1349.807861328125	-1208.002075195313	-227.3680419921876	1307.58154296875	-1294.072021484375	-192.7697143554688	1325.244140625	-1262.745361328125	-162.3220672607422	1303.518188476563	-1311.003173828125	-113.257568359375	1286.5302734375	-1326.742431640625	-101.3144683837891	1224.2607421875	-1277.708862304688	136.2791290283203	1313.682739257813	-1297.97314453125	128.9668426513672	1315.59423828125	-1363.495239257813	221.3058319091797	1326.0166015625	-1306.96875	-343.8092651367188	1343.99169921875	-896.0461425781252	-202.9420013427735	1285.877685546875	-818.897888183594	-173.9684295654297	1318.878173828125	-841.1282958984377	-132.9847106933594	1278.731323242188	-819.9166259765627	-67.0062713623047	1282.888061523438	-828.1221923828127	-66.59922027587892	1234.764404296875	-885.330261230469	174.0464019775391	1295.346435546875	-890.685974121094	168.4248352050782	1294.017944335938	-824.4971923828127	252.1987609863282	1308.768432617188	-883.0964355468752	-344.0226440429688	905.2285156250002	-1147.222412109375	-341.2629699707032	918.9116821289065	-933.5557861328127	-511.2127685546876	969.623229980469	-1036.738037109375	-517.8019409179689	938.6341552734377	-1063.595703125	-517.7491455078126	939.0306396484377	-1006.93310546875	-382.2014770507813	741.0324096679689	-1209.154907226563	-326.1232299804688	678.1385498046876	-1207.0537109375	-279.8353271484376	696.7085571289064	-1198.458618164063	-332.8085021972657	619.1207885742189	-1189.45556640625	-274.7128906250001	475.403533935547	-1156.624755859375	-242.7744903564454	488.1143493652345	-1044.520751953125	-257.9014282226563	339.6991577148438	-1065.269165039063	-292.7879333496094	281.2700195312501	-1121.924194335938	-263.0916137695313	285.6239013671876	-1084.564331054688	-295.1319580078126	221.7194213867188	-1039.8388671875	-380.3968200683594	106.944450378418	-1072.357666015625	-350.6390075683594	126.4541015625	-994.4021606445315	-441.4718627929689	98.08462524414065	-1022.867553710938	-240.1993408203126	52.50846481323244	-1003.506103515625	-234.5857391357422	48.62658309936525	-1042.53564453125	-258.8694152832032	43.12213516235352	-1092.393676757813	-270.0766601562501	712.4745483398439	-859.6036376953127	-204.4357910156251	704.5527343750001	-870.8523559570315	-186.3255157470703	730.4652709960939	-884.7893066406252	-165.2982940673828	632.0757446289064	-883.227722167969	-125.2544403076172	588.4029541015626	-890.8024902343752	-114.5344390869141	593.7233276367189	-1007.424499511719	-4.813825607299806	515.7574462890626	-914.2886352539065	-0.4158023893833162	410.7946777343751	-884.001403808594	34.21351623535157	439.3892822265626	-897.8482666015627	72.55277252197267	413.082977294922	-932.4862060546877	127.934555053711	267.7882080078126	-896.7309570312502	126.0826873779297	289.9439086914063	-979.6014404296877	90.65451812744142	215.8653564453126	-933.6328735351565	265.7556457519532	309.7117919921876	-988.7678222656252	276.2088317871094	320.8327941894532	-944.9624633789065	271.6088256835938	291.4891052246094	-889.7202148437502	
389	1.94	-245.8349914550782	1579.87451171875	-1028.891967773438	-388.2006835937501	1512.872924804688	-1123.776245117188	-371.8479614257813	1515.526977539063	-972.6710205078127	-434.8262023925782	1394.506469726563	-1041.50732421875	-498.5629882812501	1086.261108398438	-1044.481201171875	-306.5437622070313	1316.0283203125	-1053.561279296875	-369.3794860839844	1348.37451171875	-1207.7685546875	-227.1903381347657	1306.284057617188	-1294.135131835938	-192.7271423339844	1324.008544921875	-1262.7080078125	-162.4794311523438	1302.158325195313	-1311.041137695313	-113.3329010009766	1285.38671875	-1326.681518554688	-101.4487228393555	1222.804321289063	-1277.772094726563	135.9555053710938	1312.559326171875	-1297.866821289063	128.9923095703125	1314.453247070313	-1363.226196289063	221.2492370605469	1324.807006835938	-1306.679931640625	-343.8460083007813	1342.79638671875	-896.1706542968752	-202.9603424072266	1284.917846679688	-818.8962402343752	-173.9214782714844	1317.515014648438	-841.2509765625002	-133.1786651611328	1277.774658203125	-820.0242919921877	-66.97606658935548	1281.810791015625	-828.0755615234377	-66.73567199707033	1233.7626953125	-885.4483642578127	173.794677734375	1294.477661132813	-890.9409790039065	168.3653411865235	1292.991333007813	-824.6461181640627	252.0585021972657	1307.7470703125	-883.2610473632815	-344.9887390136719	904.3270263671877	-1147.20458984375	-342.4186096191407	917.5830688476565	-933.6011352539065	-511.965301513672	968.4190673828127	-1036.530029296875	-518.7983398437501	937.4397583007815	-1063.387329101563	-518.6737060546876	937.7412109375002	-1006.662902832031	-383.2769470214844	739.8876953125001	-1207.672973632813	-326.2911987304688	677.3859252929689	-1206.952758789063	-280.0489807128907	695.9346923828126	-1198.582397460938	-333.0036010742188	618.4254150390626	-1189.450439453125	-274.4525451660157	474.8743896484376	-1156.719848632813	-242.2408599853516	487.6860656738282	-1044.462646484375	-257.5647277832032	339.3952636718751	-1065.158325195313	-291.8801574707032	280.5270385742188	-1121.73876953125	-262.7892761230469	285.2792968750001	-1084.339111328125	-294.9066467285157	221.4758758544922	-1039.622436523438	-380.4549865722657	106.9039154052735	-1072.303466796875	-350.6567687988282	126.3165283203125	-994.2773437500002	-441.3787231445314	98.03444671630862	-1022.786376953125	-240.240951538086	52.56322479248048	-1003.406799316406	-234.6642303466797	48.64943313598634	-1042.44775390625	-258.2614440917969	42.94057083129884	-1092.097778320313	-270.5444030761719	711.6636962890626	-859.4235839843752	-204.8993225097657	703.8649902343751	-870.7313232421877	-186.894271850586	729.6260375976564	-884.8342895507815	-165.6420288085938	631.3673095703126	-883.127380371094	-125.5103073120117	587.6595458984376	-890.783874511719	-115.0364761352539	593.0333862304689	-1007.543212890625	-5.062842369079591	515.2750854492189	-914.2784423828127	-0.3129950165748597	410.4304809570314	-884.0592041015627	34.18772125244141	438.9610900878907	-897.844177246094	72.51710510253908	412.7717285156251	-932.604675292969	128.296630859375	267.5760803222657	-896.8298339843752	125.9151229858399	289.6504211425782	-979.715515136719	90.97000885009767	215.6199035644532	-933.710388183594	265.9591674804688	309.6781005859376	-988.8187255859377	276.3714599609376	320.8233337402344	-945.113220214844	271.5165710449219	291.0982055664063	-889.851989746094	
390	1.945	-245.6514892578126	1578.3916015625	-1028.920166015625	-387.9733886718751	1511.322143554688	-1123.730712890625	-371.8265686035157	1514.211059570313	-972.7974243164065	-434.794403076172	1393.322631835938	-1041.467895507813	-499.2579956054689	1085.11328125	-1044.289428710938	-306.6599731445313	1314.613647460938	-1053.651977539063	-369.5306701660157	1347.0615234375	-1207.816284179688	-227.2400970458985	1305.0693359375	-1294.120483398438	-192.8255004882813	1322.6669921875	-1262.745361328125	-162.1759185791016	1300.896240234375	-1310.966796875	-113.4989852905274	1284.032958984375	-1326.699462890625	-101.4666900634766	1221.662719726563	-1277.826904296875	135.9547424316407	1311.268310546875	-1297.704833984375	128.7841949462891	1313.287231445313	-1362.972412109375	220.9701232910157	1323.624389648438	-1306.431030273438	-343.9858703613282	1341.697875976563	-896.2390136718752	-203.1158142089844	1283.747680664063	-818.9502563476565	-174.0065307617188	1316.316284179688	-841.3358154296877	-133.2022552490235	1276.68603515625	-820.2202148437502	-66.51898193359376	1281.297485351563	-826.3602294921877	-66.8082733154297	1232.422485351563	-885.646911621094	173.5582733154297	1293.45703125	-891.1421508789065	168.1987915039063	1291.90673828125	-824.8890380859377	251.9677429199219	1306.832641601563	-883.369567871094	-346.0743713378907	903.2624511718752	-1147.23681640625	-342.8313903808594	916.4412231445315	-933.4425048828127	-512.8150634765626	967.369079589844	-1036.298461914063	-519.6897583007814	936.2821044921877	-1063.1474609375	-519.3743286132814	936.7210693359377	-1006.498291015625	-383.5574645996094	738.8139648437501	-1207.442016601563	-326.4264831542969	676.4429931640626	-1206.819580078125	-280.5326843261719	695.3570556640626	-1197.521728515625	-333.1166687011719	617.6879882812501	-1189.512573242188	-273.5948181152344	474.2082519531251	-1156.697387695313	-242.2035369873047	487.2009277343751	-1044.343017578125	-256.9192810058594	338.9685363769532	-1064.871337890625	-291.6349182128907	280.2134704589844	-1121.621215820313	-262.3087158203126	284.6258544921876	-1084.226928710938	-294.9279174804688	221.3929901123047	-1039.458618164063	-380.4280700683594	106.9018325805664	-1072.218627929688	-350.7337951660157	126.1558532714844	-994.1729125976565	-441.4497985839845	97.97913360595706	-1022.771423339844	-240.2485504150391	52.54654693603517	-1003.398742675781	-234.6098632812501	48.66156005859376	-1042.36669921875	-258.8464965820313	43.21631240844727	-1092.25048828125	-271.2446594238282	710.4935913085939	-859.413024902344	-205.4105529785157	703.0971679687501	-870.664245605469	-187.5440063476563	728.7348022460939	-884.8155517578127	-166.0825805664063	630.5516967773439	-883.205505371094	-125.702865600586	587.0143432617189	-890.7815551757815	-115.4061431884766	592.4415893554689	-1007.563537597656	-5.236559391021729	514.8501586914064	-914.291931152344	-0.3355776965618134	409.9398498535157	-884.086364746094	34.12829589843751	438.5943298339845	-897.920349121094	72.63424682617189	412.5604858398439	-932.7044677734377	128.6420135498047	267.4761657714844	-896.9248046875002	125.9062576293946	289.4198303222657	-979.884704589844	91.37717437744142	215.4944458007813	-933.7934570312502	266.2223205566407	309.6756286621094	-988.961853027344	276.6152648925782	320.7485961914063	-945.2803955078127	272.1831665039063	291.7355041503907	-889.953063964844	
391	1.95	-245.5063018798829	1576.954467773438	-1028.850341796875	-387.8333129882814	1510.311401367188	-1124.024780273438	-371.7653808593751	1512.837524414063	-972.8440551757815	-434.8779907226564	1392.131225585938	-1041.50439453125	-499.9669189453126	1083.950927734375	-1044.187622070313	-306.8065185546876	1313.208251953125	-1053.637451171875	-369.5721435546876	1345.800415039063	-1207.870483398438	-227.6874389648438	1303.723266601563	-1294.157348632813	-193.0727996826172	1321.345947265625	-1262.718627929688	-162.5415191650391	1299.645141601563	-1311.014892578125	-113.5626296997071	1282.830444335938	-1326.70849609375	-101.663200378418	1220.382690429688	-1277.745361328125	135.7972717285157	1310.06005859375	-1297.451538085938	128.5761260986328	1312.089599609375	-1362.798217773438	220.4478149414063	1322.513427734375	-1306.386596679688	-344.0993652343751	1340.446655273438	-896.353454589844	-203.2196044921876	1282.709716796875	-819.070983886719	-174.1593322753907	1315.443481445313	-841.4412231445315	-133.3007202148438	1275.451782226563	-820.178894042969	-67.2045364379883	1279.63623046875	-828.1599731445315	-66.95259857177736	1231.419677734375	-885.6596679687502	173.654541015625	1292.306396484375	-891.2634277343752	168.1191558837891	1291.000244140625	-825.0640258789065	251.843246459961	1305.767578125	-883.4941406250002	-346.7945861816407	902.106872558594	-1147.123657226563	-343.8200073242188	915.0725097656252	-933.497253417969	-513.7068481445314	966.3770141601565	-1036.112060546875	-520.4981689453126	935.3880004882815	-1063.039672851563	-520.2680053710939	935.6269531250002	-1006.320434570313	-383.7355041503907	737.9590454101564	-1208.488647460938	-326.4562072753907	675.6088256835939	-1206.8779296875	-280.6333312988282	694.8848876953126	-1197.666137695313	-333.0083923339844	616.8151855468751	-1189.574462890625	-272.9619750976563	473.581512451172	-1156.547729492188	-242.4028320312501	486.6929626464845	-1044.270385742188	-256.7902832031251	338.5921325683594	-1064.907958984375	-291.2678222656251	279.8144531250001	-1121.413452148438	-261.9447631835938	284.2210693359376	-1083.968994140625	-294.5693054199219	220.9086608886719	-1039.211669921875	-380.3739013671876	106.8812026977539	-1072.110473632813	-350.7552185058594	126.0095901489258	-994.030456542969	-441.4403381347657	97.90190887451175	-1022.710998535156	-240.2883300781251	52.4466018676758	-1003.365356445313	-234.6272277832032	48.66820526123048	-1042.278564453125	-258.9188537597657	43.21460723876954	-1092.195068359375	-271.7762145996094	709.6261596679689	-859.471130371094	-205.9636230468751	702.1838378906251	-870.5957031250002	-188.157470703125	728.0107421875001	-884.7080078125002	-166.4608917236328	629.7505493164064	-883.326354980469	-126.0917129516602	586.2816772460939	-890.8353271484377	-115.4994201660157	591.7974853515626	-1007.563354492188	-5.437064647674561	514.5311889648439	-914.3736572265627	-0.3952210545539857	409.6010742187501	-884.1221313476565	34.08541107177735	438.2315063476564	-897.9672851562502	72.55763244628908	412.2821655273439	-932.7803344726565	128.9531707763672	267.3086547851563	-897.0008544921877	126.0737838745117	289.2998657226563	-979.8089599609377	91.74822235107423	215.297348022461	-933.8612060546877	266.4202575683594	309.6067810058594	-989.0168457031252	276.3400878906251	320.0784912109376	-945.250671386719	272.0122070312501	291.0791320800782	-890.1354980468752	
